<svg width="2826" height="1590" viewBox="0 0 2826 1590" fill="none" xmlns="http://www.w3.org/2000/svg" opacity="0.8">
<mask id="mask0_122_35" style="mask-type:luminance" maskUnits="userSpaceOnUse" x="0" y="0" width="2826" height="1590">
<path d="M2826 0H0V1590H2826V0Z" fill="white"/>
</mask>
<g mask="url(#mask0_122_35)">
<path d="M2826 0H0V1590H2826V0Z" fill="#1F1F1F"/>
<g filter="url(#filter0_f_122_35)">
<path d="M509.826 394.709C479.174 512.463 858.711 713.253 1357.55 843.186C1856.38 973.119 2285.62 982.992 2316.27 865.238C2346.92 747.484 1967.38 546.694 1468.55 416.761C969.713 286.828 540.478 276.955 509.826 394.709Z" fill="#46443E"/>
</g>
<g filter="url(#filter1_f_122_35)">
<path d="M761.105 1620.45C871.419 1671.76 1136.99 1334.36 1354.27 866.848C1571.55 399.335 1658.27 -21.2562 1547.95 -72.5683C1437.64 -123.88 1172.07 213.517 954.786 681.03C737.504 1148.54 650.79 1569.13 761.105 1620.45Z" fill="#827D71"/>
</g>
<g filter="url(#filter2_f_122_35)">
<path d="M1792.2 2821.92C2342.94 2821.92 2789.4 2387.88 2789.4 1852.46C2789.4 1317.04 2342.94 883.002 1792.2 883.002C1241.46 883.002 795.005 1317.04 795.005 1852.46C795.005 2387.88 1241.46 2821.92 1792.2 2821.92Z" fill="#E98978" fill-opacity="0.85"/>
</g>
</g>
<defs>
<filter id="filter0_f_122_35" x="-101.628" y="-297.253" width="3029.35" height="1854.45" filterUnits="userSpaceOnUse" color-interpolation-filters="sRGB">
<feFlood flood-opacity="0" result="BackgroundImageFix"/>
<feBlend mode="normal" in="SourceGraphic" in2="BackgroundImageFix" result="shape"/>
<feGaussianBlur stdDeviation="304.86" result="effect1_foregroundBlur_122_35"/>
</filter>
<filter id="filter1_f_122_35" x="103.489" y="-687.445" width="2102.08" height="2922.77" filterUnits="userSpaceOnUse" color-interpolation-filters="sRGB">
<feFlood flood-opacity="0" result="BackgroundImageFix"/>
<feBlend mode="normal" in="SourceGraphic" in2="BackgroundImageFix" result="shape"/>
<feGaussianBlur stdDeviation="304.86" result="effect1_foregroundBlur_122_35"/>
</filter>
<filter id="filter2_f_122_35" x="286.005" y="374.002" width="3012.39" height="2956.92" filterUnits="userSpaceOnUse" color-interpolation-filters="sRGB">
<feFlood flood-opacity="0" result="BackgroundImageFix"/>
<feBlend mode="normal" in="SourceGraphic" in2="BackgroundImageFix" result="shape"/>
<feGaussianBlur stdDeviation="254.5" result="effect1_foregroundBlur_122_35"/>
</filter>
</defs>
</svg>
